# xmcd CD database file
#
# Track frame offsets:
#	150
#	16696
#	39799
#	60274
#	80833
#	97562
#	119680
#	142776
#
# Disc length: 2158 seconds
#
# Revision: 0
# Processed by: cddbd v1.5.2PL0 Copyright (c) Steve Scherf et al.
# Submitted via: CDex 1.70beta2
#
DISCID=4f086c08
DTITLE=Azure and Sands - 東方Jazz 2007
DYEAR=2007
DGENRE=Jazz
TTITLE0=東方Jazz2007
TTITLE1=リスペクティブフュージョン
TTITLE2=東の館の眠らない夜 -MATA OJYOUSAMADOMOKA!-
TTITLE3=逃げろ！空翔ぶ新聞記者 -特ダネは命がけ-
TTITLE4=Live in Vual
TTITLE5=My first lover
TTITLE6=おてんば恋娘 -I'm not number⑨-
TTITLE7=Remenber me...
EXTD=YEAR: 2007
EXTT0=
EXTT1=
EXTT2=
EXTT3=
EXTT4=
EXTT5=
EXTT6=
EXTT7=
PLAYORDER=
